<svg xmlns="http://www.w3.org/2000/svg" viewBox="0 0 64 64">
  <circle cx="32" cy="32" r="32" fill="#0033AD"/>
  <path d="M42.008 27.62l-2.072 2.071-.636.635.636.636 2.072 2.071.636.636-.636.636-2.072 2.071-.636.636-4.78-4.78 4.78-4.778.636.636.636.636.636-.636-2.072-2.071-.636-.636.636-.636 2.072-2.071.636-.636 2.071 2.071.636.636 2.072 2.071.636.636-2.072 2.071-.636.636-.636-.636-.636-.636zM32 16.07a.822.822 0 100 1.646.822.822 0 000-1.645m-7.613 3.15a.822.822 0 100 1.646.822.822 0 000-1.645M19.56 24.75a.822.822 0 100 1.646.822.822 0 000-1.645m-2.49 6.428a.822.822 0 100 1.645.822.822 0 000-1.645M19.56 37.6a.822.822 0 100 1.646.822.822 0 000-1.645m4.827 5.533a.822.822 0 100 1.646.822.822 0 000-1.646M32 46.28a.822.822 0 100 1.645.822.822 0 000-1.645m7.613-3.148a.822.822 0 100 1.645.822.822 0 000-1.645m5.828-5.533a.822.822 0 100 1.645.822.822 0 000-1.645m2.49-6.42a.822.822 0 10-.001-1.646.822.822 0 00.001 1.645m-3.49-6.429a.822.822 0 100 1.646.822.822 0 000-1.646m-4.828-5.533a.822.822 0 100 1.645.822.822 0 000-1.645m-6.24 8.683l-2.071 2.071-.636.636.636.636 2.071 2.071.636.636-2.071 2.071-.636.636-.636-.636-2.072-2.071-.636-.636.636-.636 2.072-2.071.636-.636-2.072-2.071-.636-.636.636-.636 2.072-2.071.636-.636.636.636 2.071 2.071.636.636zM32 25.538l-.636.636-2.072 2.071-.636.636.636.636 2.072 2.071.636.636.636-.636 2.071-2.071.636-.636-.636-.636-2.071-2.071L32 25.538zM27.856 21.4l-2.072 2.071-.636.636.636.636 2.072 2.071.636.636-.636.636-2.072 2.071-.636.636-.636-.636-.636-.636-.636.636.636.636.636.636-.636.636-2.072 2.071-.636.636-2.071-2.071-.636-.636-2.072-2.071-.636-.636 2.072-2.071.636-.636.636.636.636.636.636-.636-.636-.636-.636-.636.636-.636 2.072-2.071.636-.636 2.071 2.071.636.636 2.072 2.071.636.636zm0 15.556l-2.072 2.071-.636.636-2.071-2.071-.636-.636-2.072-2.071-.636-.636 2.072-2.071.636-.636.636.636.636.636.636-.636-.636-.636-.636-.636.636-.636 2.072-2.071.636-.636 2.071 2.071.636.636 2.072 2.071.636.636-2.072 2.071-.636.636-.636-.636-.636-.636-.636.636.636.636.636.636z" fill="#FFFFFF"/>
</svg> 