<svg xmlns="http://www.w3.org/2000/svg" viewBox="0 0 64 64">
  <circle cx="32" cy="32" r="32" fill="#F7931A"/>
  <path d="M43.963 29.177c.61-4.067-2.49-6.253-6.729-7.712l1.375-5.515-3.356-.837-1.338 5.367c-.882-.22-1.787-.427-2.684-.634l1.347-5.4-3.353-.837-1.375 5.514c-.73-.166-1.448-.33-2.146-.502l.004-.018-4.628-1.155-.893 3.584s2.49.572 2.437.607c1.36.34 1.606 1.24 1.565 1.954l-1.567 6.28c.094.024.215.059.35.113l-.356-.089-2.197 8.803c-.166.413-.587 1.032-1.534.797.033.048-2.438-.609-2.438-.609L15 43.702l4.367 1.09c.814.204 1.61.417 2.396.618l-1.387 5.571 3.35.837 1.375-5.517c.917.248 1.806.477 2.68.694l-1.37 5.491 3.354.837 1.388-5.561c5.73 1.084 10.034.648 11.844-4.531 1.46-4.173-.072-6.578-3.084-8.142 2.194-.507 3.842-1.95 4.28-4.937zm-7.667 10.775c-1.037 4.172-8.08 1.916-10.361 1.35l1.848-7.41c2.28.57 9.586 1.696 8.513 6.06zm1.037-10.832c-.947 3.792-6.785 1.864-8.678 1.392l1.678-6.718c1.893.472 7.989 1.353 7 5.326z" fill="#FFFFFF"/>
</svg> 