<svg xmlns="http://www.w3.org/2000/svg" viewBox="0 0 64 64">
  <circle cx="32" cy="32" r="32" fill="#8247E5"/>
  <path d="M42.376 24.027c-.516-.304-1.186-.304-1.784 0l-6.722 3.883-4.555 2.551-6.722 3.883c-.516.304-1.186.304-1.784 0l-5.255-3.041c-.516-.304-.868-.85-.868-1.457v-5.993c0-.607.271-1.154.868-1.457l5.173-2.953c.516-.304 1.186-.304 1.784 0l5.173 2.953c.516.304.868.85.868 1.457v3.883l4.555-2.639v-3.883c0-.607-.271-1.154-.868-1.457l-9.728-5.592c-.516-.304-1.186-.304-1.784 0l-9.892 5.68c-.598.304-.87.85-.87 1.438v11.183c0 .607.272 1.154.87 1.457l9.81 5.592c.516.304 1.186.304 1.784 0l6.722-3.883 4.555-2.639 6.722-3.883c.516-.304 1.186-.304 1.784 0l5.173 2.953c.516.304.868.85.868 1.457v5.993c0 .607-.271 1.154-.868 1.457l-5.173 2.953c-.516.304-1.186.304-1.784 0l-5.173-2.953c-.516-.304-.868-.85-.868-1.457V33.02l-4.555 2.639v3.883c0 .607.271 1.154.868 1.457l9.81 5.592c.516.304 1.186.304 1.784 0l9.81-5.592c.516-.304.868-.85.868-1.457V28.35c0-.607-.271-1.154-.868-1.457l-9.811-5.592z" fill="#FFFFFF"/>
</svg> 