<svg xmlns="http://www.w3.org/2000/svg" viewBox="0 0 64 64">
  <circle cx="32" cy="32" r="32" fill="#FF007A"/>
  <path d="M45.377 32.94c-.6-1.014-1.398-1.825-2.287-2.635 1.12-.403 1.924-1.014 2.425-1.825.704-1.014.805-2.23.503-3.345-.402-1.216-1.2-2.23-2.325-2.939-.906-.604-1.914-1.014-3.02-1.317.604-1.317.805-2.635.402-3.85-.402-1.32-1.2-2.432-2.426-3.143-1.2-.704-2.827-.805-4.53-.403-.805.202-1.71.604-2.617 1.115a9.71 9.71 0 01-1.317-2.837c-.604-2.03-1.61-3.041-3.02-3.142-1.32-.201-2.627.403-3.834 1.623-.906.906-1.61 2.23-2.225 3.749-.301.805-.503 1.724-.704 2.635-1.723.201-3.132.704-4.23 1.52-1.42 1.014-2.224 2.534-2.325 4.056-.1 1.52.503 3.041 1.914 4.36.603.603 1.41 1.115 2.224 1.521-1.116 1.115-1.924 2.433-2.224 3.85-.403 1.52-.1 3.04.805 4.36.906 1.317 2.225 2.229 3.834 2.634 1.02.302 2.226.403 3.432.302a8.747 8.747 0 01-1.12 3.245c-.906 1.723-1.32 3.244-.905 4.561.403 1.317 1.318 2.23 2.728 2.635 1.41.402 3.13 0 4.942-1.115.906-.604 1.812-1.52 2.627-2.635.704.805 1.51 1.419 2.325 1.723 1.42.604 2.828.403 3.935-.403 1.12-.806 1.822-2.13 2.124-3.749.202-1.115.202-2.432.101-3.85 1.117-.1 2.124-.403 3.03-.805 1.51-.704 2.526-1.723 3.129-3.04.603-1.317.704-2.837.1-4.36zm-18.19-10.751c-.101-.303-.101-.504-.202-.906.102-.101.202-.101.403-.202 1.117-.403 2.225-.604 3.13-.403.4 0 .803.202 1.004.504.3.302.4.705.3 1.115-.1.404-.303.806-.704 1.115-.403.302-1.006.604-1.813.806-.1 0-.2.1-.402.1.101-.403.202-.705.202-1.115.1-.403.1-.705.1-1.014h-.019zm-2.526-9.737c.503-.705 1.106-1.115 1.61-1.317.503-.101.905-.101 1.306.302.403.302.704.806.804 1.520.101.705 0 1.52-.3 2.534-.102.403-.203.806-.304 1.115a21.5 21.5 0 00-3.433.805 10.58 10.58 0 00-.704-2.331c-.402-1.216-.503-2.23-.1-2.736l.1.1.02.008zm-5.75 14.293c.201-.604.5-1.216.803-1.825.202.101.403.302.604.403.805.403 1.61.704 2.426.805.403.1.805.1 1.218.1-.1.504-.202.806-.202 1.216-.1.604-.2 1.115-.2 1.723 0 .201 0 .403.1.604-.906.101-1.813.403-2.627.806-.704.302-1.32.604-1.813 1.014-.201.1-.402.302-.603.504-.201-.201-.302-.504-.403-.806-.403-.806-.503-1.723-.304-2.636.101-.403.202-1.115.403-1.723-.1-.101-.1-.101 0-.201l-.402.016zm.604 7.71c.402-.302.805-.504 1.32-.705-.504.705-.906 1.52-1.207 2.432h-.101c-.704 0-1.32-.101-1.822-.302-.805-.201-1.41-.604-1.813-1.115-.302-.403-.503-.906-.302-1.52.1-.604.503-1.115 1.117-1.723.202-.201.503-.403.805-.604.1.201.2.403.302.604.504.806 1.117 1.52 1.92 2.026-.1.202-.1.403-.219.906v.1zm15.06-5.076c1.207 0 2.224.403 3.13 1.115.906.705 1.51 1.723 1.71 2.838.303 1.115.1 2.23-.401 3.244-.503 1.014-1.31 1.825-2.326 2.33-1.016.503-2.124.604-3.33.403-1.207-.202-2.225-.806-3.13-1.723-.805-.906-1.41-1.928-1.61-3.142-.303-1.216 0-2.534.603-3.65.504-1.115 1.306-1.927 2.325-2.432.906-.403 1.924-.604 3.03-.604v.604l-.2.017zm5.347 12.584c-.906.403-1.914.604-3.13.503 0-.201-.102-.403-.102-.604-.202-1.115-.604-2.13-1.207-3.042.403-.201.805-.403 1.117-.704.906-.604 1.51-1.32 1.924-2.23.402-.906.503-1.723.402-2.635.403.302.805.604 1.208 1.014.704.806 1.12 1.52 1.32 2.23.201.705.201 1.317 0 1.825-.302.503-.604 1.014-1.207 1.52-.402.402-.805.705-1.319 1.014-.1.1-.1.1-.6.1v-.1.1h.1l-.1.009zm-3.633-19.585c-2.426-.201-4.64.504-6.553 1.927-.101-.403-.202-.806-.403-1.32-.202-.705-.503-1.52-.805-2.432.402-.201.704-.403 1.006-.705 1.32-1.115 2.024-2.33 2.124-3.649.101-1.32-.503-2.23-1.61-2.635.704-.302 1.307-.403 1.914-.302.905.1 1.509.604 1.812 1.52.303.906.202 2.129-.3 3.548-.101.403-.303.806-.504 1.216 1.308.1 2.426.403 3.33.906.704.403 1.207.806 1.61 1.317.402.504.603 1.014.603 1.52-.1.403-.302.806-.604 1.014-.301.201-.704.302-1.307.201l.1-.1-.413-.605zm-11.196 19.28c-1.207 2.534-2.728 4.258-4.339 5.07-.805.402-1.61.503-2.224.302-.704-.201-1.208-.705-1.51-1.419-.302-.705-.202-1.622.302-2.736.301-.705.704-1.419 1.307-2.23.704.1 1.5.1 2.324 0 1.207-.202 2.325-.705 3.33-1.419.403-.302.704-.604 1.005-1.014.102.806.202 1.52.303 2.13.1.704.1 1.317.503 1.317v-.1.1zm-7.469-20.6c.302-.805.704-1.52 1.117-2.129.102.403.203.705.304 1.014.302 1.115.704 2.13 1.307 3.042.202.302.403.604.603.906-.603.302-1.117.705-1.61 1.115-.805.705-1.41 1.52-1.924 2.433-.101.201-.202.403-.302.604a5.167 5.167 0 01-.905-.705c-.604-.604-1.007-1.317-1.208-2.13-.201-.805-.101-1.52.302-2.13.402-.604 1.005-1.217 1.913-1.825.201-.1.302-.1.403-.201v.6zm-2.325 14.616c-.202-1.115.1-2.23.804-3.447.102.201.203.403.304.604.604.806 1.307 1.52 2.124 2.026.302.201.604.403.906.504a9.618 9.618 0 01-1.408 2.432c-.504.604-.906 1.115-1.307 1.419-.403.403-.805.604-1.118.705-.302.1-.604.1-.805-.101-.201-.202-.401-.604-.503-1.115 0-.604.1-1.317.2-2.129 0-.402.101-.705.202-1.115-.102.202-.202.202-.403.202v-.1.1l.1-.1-.096.116zm12.001-7.81c0-1.52 1.206-2.736 2.728-2.736 1.52 0 2.727 1.217 2.727 2.736 0 1.52-1.207 2.735-2.727 2.735-1.522 0-2.728-1.216-2.728-2.735z" fill="#FFFFFF"/>
</svg> 